<?xml version="1.0" standalone="no"?><!DOCTYPE svg PUBLIC "-//W3C//DTD SVG 1.1//EN" "http://www.w3.org/Graphics/SVG/1.1/DTD/svg11.dtd"><svg t="1559627869481" class="icon" style="" viewBox="0 0 1024 1024" version="1.1" xmlns="http://www.w3.org/2000/svg" p-id="3709" xmlns:xlink="http://www.w3.org/1999/xlink" width="200" height="200"><defs><style type="text/css"></style></defs><path d="M1018.8 844.866v6c0 89.4-73 162.6-162.2 162.6h-689.2c-89.2 0-162.2-73.2-162.2-162.6v-688.6c0-89.4 73-162.6 162.2-162.6h689.4c89.2 0 162.2 73.2 162.2 162.6v524.2l-0.2 158.4zM278.8 779.866c-158.2 0-204.8-124-125.8-193 26.4-22.4 73-34.6 99.4-36.6 93.2-10.2 180.4 26.4 283.8 77.2-74.8 93.6-166.2 152.4-257.4 152.4v0zM840.4 635.666c-40.6-14.2-95.2-34.6-156.2-56.8 36.4-63 64.8-136.2 85.2-213.4h-200.6v-71.2h245.2v-40.6h-245.4v-119.8h-99.4c-18.2 0-18.2 18.2-18.2 18.2v103.6h-247.2v40.6h247.4v69h-204.8v40.6h397.4c-14.2 50.8-34.4 97.6-56.8 140.2-127.8-42.6-265.6-77.2-352.8-54.8-54.8 14.2-91.2 38.6-111.6 63-95.2 115.8-26.4 292.6 174.4 292.6 119.6 0 235.2-67 324.4-176.8 133.8 65 397.4 174.8 397.4 174.8v-156.4c0 0-32.4-4-178.4-52.8z" fill="#00a0e9" p-id="3710"></path></svg>