<?xml version="1.0" standalone="no"?><!DOCTYPE svg PUBLIC "-//W3C//DTD SVG 1.1//EN" "http://www.w3.org/Graphics/SVG/1.1/DTD/svg11.dtd"><svg t="1559616315168" class="icon" style="" viewBox="0 0 1331 1024" version="1.1" xmlns="http://www.w3.org/2000/svg" p-id="2936" xmlns:xlink="http://www.w3.org/1999/xlink" width="259.9609375" height="200"><defs><style type="text/css"></style></defs><path d="M875.52 312.32c15.36 0 30.72 0 40.96 5.12-35.84-179.2-230.4-307.2-445.44-307.2C230.4 10.24 30.72 174.08 30.72 384c0 122.88 66.56 220.16 174.08 296.96l-46.08 133.12 153.6-76.8c56.32 10.24 97.28 20.48 153.6 20.48h40.96c-10.24-30.72-15.36-61.44-15.36-92.16 10.24-199.68 174.08-353.28 384-353.28z m-235.52-117.76c30.72 0 56.32 20.48 56.32 56.32 0 30.72-20.48 56.32-56.32 56.32-30.72 0-66.56-20.48-66.56-56.32 0-35.84 30.72-56.32 66.56-56.32z m-307.2 107.52c-30.72 0-66.56-20.48-66.56-56.32 0-30.72 35.84-56.32 66.56-56.32s56.32 20.48 56.32 56.32c-5.12 35.84-25.6 56.32-56.32 56.32z" p-id="2937"></path><path d="M1300.48 660.48c0-174.08-179.2-317.44-378.88-317.44-209.92 0-378.88 143.36-378.88 317.44 0 174.08 168.96 317.44 378.88 317.44 46.08 0 87.04-10.24 133.12-20.48L1177.6 1024l-35.84-107.52c87.04-71.68 158.72-158.72 158.72-256z m-506.88-56.32c-20.48 0-46.08-20.48-46.08-40.96s20.48-40.96 46.08-40.96c35.84 0 56.32 20.48 56.32 40.96s-20.48 40.96-56.32 40.96z m245.76 0c-20.48 0-46.08-20.48-46.08-40.96s20.48-40.96 46.08-40.96c35.84 0 56.32 20.48 56.32 40.96s-20.48 40.96-56.32 40.96z" p-id="2938"></path></svg>